<?xml version="1.0" encoding="UTF-8"?>
<svg width="128px" height="128px" viewBox="0 0 128 128" version="1.1" xmlns="http://www.w3.org/2000/svg" xmlns:xlink="http://www.w3.org/1999/xlink">
    <title>iconUpdate</title>
    <g id="页面-1" stroke="none" stroke-width="1">
        <g id="线性图标" transform="translate(-64.000000, -8552.000000)">
            <g id="编组-59" transform="translate(64.000000, 8552.000000)">
                <path d="M105.644857,66.7527241 L117,66.7527241 C116.28143,80.584682 110.261782,93.014223 100.933462,102.051204 C91.3798386,111.306453 78.3555282,117.003208 64.0000592,117.003208 C48.5032257,117.003208 34.5577267,110.364477 24.8588399,99.7817616 L24.4731557,99.3563559 L23.2841325,98.0153461 L12.6207119,108.672473 L12.6207119,78.5997702 L42.707246,78.5997702 L31.332224,89.967227 L32.7162234,91.5743887 C40.3635876,100.222464 51.5447181,105.675575 64.0000592,105.675575 C75.0902916,105.675575 85.1702211,101.352179 92.6450206,94.299785 C100.031465,87.3307532 104.873576,77.6967019 105.633926,66.9279729 L105.644857,66.7527241 Z M64.0000592,11 C79.4983392,11 93.4449949,17.6399702 103.143995,28.22441 L103.529683,28.649885 L104.7189,29.9913209 L115.379407,19.3316926 L115.379407,49.4034375 L85.2928724,49.4034375 L96.6678944,38.0359807 L95.283895,36.428819 C87.6365308,27.7807432 76.4554003,22.3276327 64.0000592,22.3276327 C52.9098268,22.3276327 42.8298973,26.6510292 35.3550978,33.7034228 C28.1005539,40.5480075 23.3002864,49.9632824 22.4108217,60.4994328 L22.3541559,61.2493785 L11,61.2493785 L11.0312237,60.7048587 C11.8746729,47.1388103 17.8199851,34.954178 26.9717718,26.0441528 L27.4320245,25.6013892 C36.9510339,16.5530761 49.8267577,11 64.0000592,11 Z" id="形状"></path>
            </g>
        </g>
    </g>
</svg>
